<svg xmlns="http://www.w3.org/2000/svg" width="512" height="512" viewBox="0 0 512 512" version="1.1">
	<path d="M 5 161.371 C 5 162.260, 6.746 162.974, 9.964 163.401 C 18.346 164.513, 18.001 162.509, 17.994 209.973 C 17.991 235.475, 17.590 252.936, 16.955 255.222 C 16.064 258.432, 15.359 259.096, 11.834 260.045 C 3.693 262.237, 9.580 263.119, 35.611 263.608 C 62.953 264.121, 71.917 263.250, 77.591 259.532 C 80.960 257.325, 79.392 255.156, 75.857 257.135 C 74.212 258.057, 69.120 258.462, 59 258.478 C 43.102 258.502, 36.168 256.906, 33.739 252.663 C 32.825 251.068, 32.416 239.844, 32.181 209.891 C 31.885 172.204, 31.989 169.154, 33.623 167.520 C 35.186 165.957, 36.958 165.813, 49.442 166.240 C 61.219 166.642, 64.746 167.148, 71.176 169.360 C 75.398 170.812, 79.111 172, 79.426 172 C 80.556 172, 79.975 166.225, 78.750 165.278 C 78.063 164.746, 75.250 163.724, 72.500 163.008 C 69.750 162.291, 67.073 161.321, 66.550 160.853 C 66.028 160.384, 51.965 160, 35.300 160 C 10.299 160, 5 160.240, 5 161.371 M 320.651 176.756 C 320.358 177.230, 313.153 195.657, 304.639 217.704 C 296.126 239.751, 288.479 259.107, 287.646 260.717 C 285.571 264.730, 283.538 266.227, 279.208 266.931 C 276.828 267.318, 275.404 268.140, 275.190 269.251 C 274.886 270.828, 275.973 270.933, 288.179 270.502 C 295.506 270.244, 301.837 270.025, 302.250 270.016 C 304.091 269.976, 302.729 268.336, 300 267.306 C 297.800 266.476, 297 265.525, 297 263.744 C 297 260.629, 304.738 237.866, 306.310 236.358 C 307.469 235.246, 331.110 233.864, 333.765 234.753 C 334.461 234.986, 335.923 237.135, 337.013 239.528 C 340.597 247.395, 341.310 246.319, 340.746 233.890 C 340.283 223.683, 339.107 217.890, 336 210.500 C 335.537 209.400, 332.475 201.317, 329.195 192.539 C 323.631 177.647, 321.982 174.602, 320.651 176.756 M 193.240 182.753 C 191.070 183.477, 191.901 184.819, 194.931 185.485 C 196.543 185.839, 198.349 186.715, 198.944 187.433 C 199.686 188.327, 199.944 199.697, 199.763 223.609 L 199.500 258.482 196.211 260.035 C 194.401 260.889, 193.239 261.905, 193.627 262.294 C 194.702 263.369, 218.288 263.106, 220 262 C 221.177 261.239, 220.932 261.027, 218.861 261.015 C 217.409 261.007, 215.159 260.140, 213.861 259.090 C 211.585 257.249, 211.500 256.679, 211.500 243.340 L 211.500 229.500 218 229.230 L 224.500 228.960 235.295 241.980 C 241.232 249.141, 246.520 255, 247.045 255 C 247.570 255, 248 253.033, 248 250.628 C 248 246.857, 247.140 245.062, 241.750 237.577 C 238.313 232.804, 235.076 228.285, 234.558 227.533 C 233.881 226.551, 234.673 224.997, 237.378 222.003 C 242.549 216.280, 245 210.126, 245 202.867 C 245 196.472, 243.586 192.770, 239.845 189.367 C 234.666 184.656, 231.234 183.749, 217.039 183.341 C 209.593 183.126, 201.471 182.813, 198.990 182.645 C 196.510 182.477, 193.923 182.526, 193.240 182.753 M 212.250 187.662 C 211.317 188.039, 211 192.591, 211 205.608 L 211 223.050 213.565 224.025 C 217.156 225.390, 227.007 225.215, 230 223.732 C 233.660 221.918, 237 214.610, 237 208.414 C 237 202.682, 234.862 195.629, 232.224 192.658 C 228.444 188.402, 217.315 185.619, 212.250 187.662 M 318.694 197.750 C 316.977 200.785, 308.928 227.371, 309.375 228.534 C 309.822 229.701, 312.211 230, 321.077 230 L 332.217 230 331.558 227.250 C 330.401 222.423, 320.527 197.003, 319.809 197.001 C 319.429 197.001, 318.927 197.338, 318.694 197.750 M 145.324 200.439 C 139.559 202.242, 134.849 205.318, 130.527 210.102 C 124.719 216.530, 122.713 222.113, 122.637 232.052 C 122.580 239.441, 122.947 241.372, 125.336 246.254 C 128.713 253.157, 136.319 260.239, 142.684 262.408 C 148.535 264.401, 161.766 264.521, 165.443 262.614 C 167.942 261.317, 167.644 261.230, 160.807 261.258 C 151.718 261.295, 145.646 258.677, 140.034 252.301 C 134.656 246.192, 132.543 239.537, 132.636 229 C 132.725 218.866, 134.900 213.051, 140.409 208.214 C 146.473 202.890, 150.296 201.752, 160.329 202.287 C 169.272 202.764, 170.265 202.197, 164.101 200.136 C 159.656 198.650, 150.577 198.797, 145.324 200.439 M 268.314 201.950 C 260.043 206.994, 261.207 216.165, 271.113 223.995 C 277.040 228.680, 279 229.038, 279 225.435 C 279 223.711, 277.359 221.177, 274 217.710 C 271.250 214.872, 268.948 211.864, 268.885 211.025 C 268.479 205.646, 270.834 202, 274.714 202 C 276.062 202, 276.847 201.561, 276.500 201 C 275.516 199.408, 271.770 199.843, 268.314 201.950 M 262.195 242.120 C 262.492 247.287, 262.592 247.447, 266 248.205 C 268.124 248.677, 271.270 248.506, 274 247.772 L 278.500 246.561 273.635 245.847 C 268.786 245.135, 264 241.925, 264 239.385 C 264 238.688, 263.525 237.824, 262.945 237.466 C 262.241 237.031, 261.991 238.584, 262.195 242.120 M 427.200 284.200 C 425.524 285.876, 425.702 290.508, 427.500 292 C 429.332 293.520, 431.706 291.903, 433.126 288.169 C 434.676 284.091, 430.265 281.135, 427.200 284.200 M 324.500 289.646 C 315.275 290.213, 314 290.683, 314 293.519 C 314 295.146, 314.561 296, 315.630 296 C 316.998 296, 317.157 296.764, 316.619 300.750 C 316.267 303.363, 315.333 310.900, 314.545 317.500 C 313.756 324.100, 312.830 330.431, 312.486 331.570 C 312.095 332.864, 312.450 334.128, 313.431 334.943 C 314.737 336.027, 315.800 335.910, 319.751 334.251 C 322.363 333.154, 327.696 331.306, 331.601 330.145 C 339.967 327.657, 347.643 322.338, 351.369 316.449 C 354.912 310.848, 355.088 301.896, 351.750 296.985 C 347.345 290.503, 340.510 288.662, 324.500 289.646 M 326.339 295.096 C 323.349 295.962, 323.115 296.391, 321.987 303.074 C 321.332 306.959, 320.729 314.044, 320.648 318.819 L 320.500 327.500 323 327.240 C 339.942 325.480, 352.984 311.479, 347.399 301.047 C 344.117 294.918, 335.431 292.463, 326.339 295.096 M 405.500 299.017 C 397.874 300.665, 392 306.197, 392 311.730 C 392 315.057, 394.210 317.362, 401.250 321.376 C 409.031 325.813, 407.536 328.212, 396.500 329 C 389.833 329.476, 389.500 329.619, 389.500 332 C 389.500 334.191, 389.989 334.540, 393.455 334.823 C 402.383 335.551, 412 330.414, 412 324.917 C 412 321.958, 408.908 319.087, 401.100 314.797 C 396.360 312.192, 396.843 308.739, 402.316 306.089 C 404.689 304.940, 407.813 304, 409.257 304 C 412.214 304, 413.279 302.890, 412.434 300.689 C 411.701 298.779, 409.290 298.198, 405.500 299.017 M 371.457 300.863 C 364.279 305.241, 359.056 314.464, 359.022 322.827 C 359.003 327.397, 359.415 328.569, 361.923 331.077 C 367.089 336.243, 376.677 334.549, 382.994 327.354 C 386.176 323.730, 386.890 321, 384.655 321 C 383.915 321, 382.453 321.948, 381.405 323.106 C 379.046 325.714, 372.750 329, 370.111 329 C 367.808 329, 365 326.482, 365 324.416 C 365 323.624, 367.363 321.452, 370.250 319.591 C 381.434 312.382, 385.965 304.190, 380.777 300.557 C 377.853 298.508, 375.174 298.596, 371.457 300.863 M 451 303.583 C 442.201 308.587, 436.380 315.951, 435.364 323.363 C 433.932 333.808, 441.851 335.690, 452.629 327.469 C 454.410 326.111, 456.161 325, 456.521 325 C 458.401 325, 454.513 340.698, 451.815 344 C 448.941 347.517, 442.113 347.375, 436.270 343.677 C 431.659 340.759, 429 340.260, 429 342.313 C 429 345.586, 440.433 353, 445.480 353 C 449.200 353, 455.367 348.738, 457.929 344.396 C 459.474 341.778, 460.741 336.586, 462.098 327.320 C 463.170 319.997, 464.487 312.850, 465.024 311.438 C 468.548 302.167, 460.962 297.918, 451 303.583 M 422.479 303.034 C 421.199 305.105, 419.590 317.706, 419.545 326 C 419.500 334.412, 419.526 334.500, 422 334.500 C 424.449 334.500, 424.502 334.335, 424.618 326.500 C 424.682 322.100, 425.512 315.446, 426.460 311.713 C 427.409 307.980, 427.933 304.268, 427.624 303.463 C 426.981 301.786, 423.433 301.490, 422.479 303.034 M 473.677 303.750 C 473.435 304.163, 472.648 310.720, 471.927 318.323 C 470.796 330.266, 470.813 332.270, 472.059 333.057 C 472.851 333.559, 473.859 333.976, 474.298 333.985 C 475.596 334.010, 479.353 329.481, 481.464 325.347 C 482.545 323.231, 484.901 319.137, 486.702 316.250 C 490.913 309.495, 493.324 309.258, 494.881 315.443 C 495.497 317.886, 496 321.240, 496 322.896 C 496 329.863, 499.731 333.183, 505.074 330.969 C 508.844 329.408, 509.119 326, 505.475 326 C 502.519 326, 501.584 324.076, 500.585 315.934 C 499.708 308.789, 496.885 304, 493.549 304 C 490.095 304, 485.050 308.771, 481.500 315.395 C 478.391 321.196, 476.620 322.654, 477.426 318.750 C 478.579 313.168, 479.073 306.806, 478.496 304.987 C 477.887 303.068, 474.577 302.218, 473.677 303.750 M 372.305 306.499 C 369.810 308.247, 365.512 314.845, 366.333 315.667 C 367.946 317.280, 377 309.310, 377 306.277 C 377 304.565, 374.926 304.663, 372.305 306.499 M 452.511 308.557 C 447.811 311.747, 446.747 312.811, 443.557 317.511 C 440.625 321.832, 440.103 327, 442.599 327 C 450.209 327, 462.755 312.025, 458.968 307.461 C 457.346 305.507, 456.893 305.584, 452.511 308.557" stroke="none" fill="black" fill-rule="evenodd"/>
</svg>